<svg xmlns="http://www.w3.org/2000/svg" width="26.679" height="22.4" viewBox="0 0 26.679 22.4">
  <g id="그룹_990" data-name="그룹 990" transform="translate(2858 -539.77)">
    <path id="패스_193" data-name="패스 193" d="M-2858,554.459V543.58a1.322,1.322,0,0,0,.04-.15,4.194,4.194,0,0,1,4.279-3.659q9.02,0,18.041,0a4.533,4.533,0,0,1,.821.07,4.189,4.189,0,0,1,3.49,4.169c.012,3.326,0,6.653,0,9.98a4.153,4.153,0,0,1-.286,1.546,4.2,4.2,0,0,1-4,2.691q-2.984.008-5.968,0a.364.364,0,0,0-.364.2c-.642,1.058-1.288,2.114-1.953,3.158a4.164,4.164,0,0,1-.554.587h-.413a1.427,1.427,0,0,1-.58-.591c-.637-1.043-1.284-2.08-1.915-3.127a.416.416,0,0,0-.418-.227c-2,.007-4.008,0-6.011,0a4.181,4.181,0,0,1-3.984-2.868C-2857.871,555.069-2857.926,554.76-2858,554.459Zm20.76,0a9.268,9.268,0,0,0,.943-.053,2.173,2.173,0,0,0,1.923-1.569,3.935,3.935,0,0,0,.13-1.063c.015-1.407.006-2.814.006-4.22,0-.081-.008-.162-.012-.249h-1.573v.406c-.133-.107-.233-.2-.344-.275a2.188,2.188,0,0,0-3.09.934,3.041,3.041,0,0,0-.1,2.129,2.115,2.115,0,0,0,2.86,1.4,4.5,4.5,0,0,0,.672-.391,1.677,1.677,0,0,1-.206,1.122c-.306.419-.775.356-1.211.367Zm-17.846-9.28v6.754h1.647v-.482a1.6,1.6,0,0,0,.913.622,2.2,2.2,0,0,0,2.164-.769,2.583,2.583,0,0,0,.266-2.947,2.026,2.026,0,0,0-3.222-.734,1.585,1.585,0,0,1-.147.091v-2.553c-.489,0-.961,0-1.434,0C-2854.957,545.165-2855.017,545.176-2855.086,545.183Zm12.149,1.937c-.249.028-.5.043-.747.087a2.363,2.363,0,0,0-2.083,2.118,2.385,2.385,0,0,0,1.7,2.674,3.446,3.446,0,0,0,2.436-.216,2.468,2.468,0,0,0,.433-4.076A3,3,0,0,0-2842.937,547.121Zm-4.005,4.836c0-.074.01-.119.01-.163,0-1.444.02-2.889-.013-4.332a3.486,3.486,0,0,0-.279-1.215,1.971,1.971,0,0,0-2.021-1.206c0,.484,0,.97.006,1.456,0,.038.07.091.118.108a.67.67,0,0,1,.453.453,4.207,4.207,0,0,1,.159.963c.018,1.215.008,2.43.008,3.645v.275c.072.007.116.015.16.016Z" transform="translate(0)" fill="#222"/>
    <path id="패스_194" data-name="패스 194" d="M-2124,837.935V836.48c.434-.01.9.052,1.205-.365a1.669,1.669,0,0,0,.2-1.117,4.454,4.454,0,0,1-.669.389,2.1,2.1,0,0,1-2.845-1.393,3.024,3.024,0,0,1,.1-2.119,2.177,2.177,0,0,1,3.075-.929c.111.075.21.168.342.274v-.4h1.565c0,.086.012.167.012.248,0,1.4.009,2.8-.005,4.2a3.907,3.907,0,0,1-.13,1.058,2.161,2.161,0,0,1-1.913,1.562A9.222,9.222,0,0,1-2124,837.935Zm.448-3.75a1.045,1.045,0,0,0,1.04-1.027,1.039,1.039,0,0,0-1.036-1.051,1.034,1.034,0,0,0-1.049,1.035A1.04,1.04,0,0,0-2123.549,834.184Z" transform="translate(-713.214 -283.489)" fill="#fff"/>
    <path id="패스_195" data-name="패스 195" d="M-2742.744,753.154c.069-.007.128-.018.187-.018.47,0,.94,0,1.427,0v2.541a1.671,1.671,0,0,0,.146-.09,2.016,2.016,0,0,1,3.206.73,2.57,2.57,0,0,1-.265,2.933,2.191,2.191,0,0,1-2.153.765,1.587,1.587,0,0,1-.908-.619v.48h-1.64Zm3.688,4.438a1.032,1.032,0,0,0-1.053-1.032,1.039,1.039,0,0,0-1.032,1.032,1.045,1.045,0,0,0,1.044,1.046A1.04,1.04,0,0,0-2739.056,757.592Z" transform="translate(-112.357 -207.958)" fill="#fff"/>
    <path id="패스_196" data-name="패스 196" d="M-2372.2,830.522a2.984,2.984,0,0,1,1.728.585,2.456,2.456,0,0,1-.431,4.056,3.428,3.428,0,0,1-2.424.215,2.374,2.374,0,0,1-1.691-2.661,2.352,2.352,0,0,1,2.073-2.108C-2372.7,830.565-2372.45,830.55-2372.2,830.522Zm-.157,3.557a1.05,1.05,0,0,0,1.055-1.035A1.046,1.046,0,0,0-2372.35,832a1.042,1.042,0,0,0-1.041,1.023A1.042,1.042,0,0,0-2372.359,834.079Z" transform="translate(-470.733 -283.391)" fill="#fff"/>
    <path id="패스_197" data-name="패스 197" d="M-2509.438,754.794h-1.393c-.044,0-.088-.008-.159-.015V754.5c0-1.209.011-2.418-.008-3.627a4.115,4.115,0,0,0-.159-.958.666.666,0,0,0-.451-.451c-.048-.017-.117-.07-.118-.108-.008-.484-.005-.968-.005-1.449a1.961,1.961,0,0,1,2.011,1.2,3.467,3.467,0,0,1,.278,1.209c.033,1.436.014,2.874.013,4.311C-2509.428,754.676-2509.434,754.72-2509.438,754.794Z" transform="translate(-337.511 -202.86)" fill="#fff"/>
    <path id="패스_198" data-name="패스 198" d="M-2059.505,891.384a1.04,1.04,0,0,1-1.045-1.042,1.034,1.034,0,0,1,1.05-1.035,1.039,1.039,0,0,1,1.036,1.051A1.046,1.046,0,0,1-2059.505,891.384Z" transform="translate(-777.281 -340.695)" fill="#222"/>
    <path id="패스_199" data-name="패스 199" d="M-2676.95,890.336a1.04,1.04,0,0,1-1.042,1.046,1.045,1.045,0,0,1-1.044-1.046A1.039,1.039,0,0,1-2678,889.3,1.032,1.032,0,0,1-2676.95,890.336Z" transform="translate(-174.439 -340.693)" fill="#222"/>
    <path id="패스_200" data-name="패스 200" d="M-2308.387,891.377a1.043,1.043,0,0,1-1.032-1.055,1.042,1.042,0,0,1,1.041-1.023,1.045,1.045,0,0,1,1.046,1.043A1.05,1.05,0,0,1-2308.387,891.377Z" transform="translate(-534.706 -340.688)" fill="#222"/>
  </g>
</svg>
